<?xml version="1.0" standalone="no"?>
<!DOCTYPE svg PUBLIC "-//W3C//DTD SVG 20010904//EN"
 "http://www.w3.org/TR/2001/REC-SVG-20010904/DTD/svg10.dtd">
<svg version="1.0" xmlns="http://www.w3.org/2000/svg"
 width="300.000000pt" height="300.000000pt" viewBox="0 0 300.000000 300.000000"
 preserveAspectRatio="xMidYMid meet">
<metadata>
Created by potrace 1.11, written by Peter Selinger 2001-2013
</metadata>
<g transform="translate(0.000000,300.000000) scale(0.100000,-0.100000)"
fill="#000000" stroke="none">
<path d="M2725 2940 c-93 -33 -246 -85 -340 -116 -93 -32 -173 -60 -178 -64
-4 -3 -9 -49 -12 -101 -8 -157 -17 -271 -30 -389 -1 -14 -6 -54 -9 -90 -9 -86
-16 -140 -21 -170 -2 -14 -7 -45 -10 -70 -7 -53 -32 -214 -40 -250 -2 -14 -9
-48 -15 -76 -6 -28 -13 -61 -15 -75 -3 -13 -16 -69 -30 -124 -23 -89 -29 -113
-39 -150 -55 -201 -169 -466 -261 -611 -190 -297 -432 -468 -725 -510 -30 -4
-58 -9 -62 -10 -5 -1 -40 -2 -80 -3 -39 0 -69 -3 -67 -5 18 -19 443 -29 559
-13 100 13 256 58 360 104 306 135 559 395 749 770 47 93 118 250 127 283 2 8
24 74 49 145 55 162 131 461 160 635 3 19 8 42 10 50 7 25 41 264 50 347 3 26
7 62 10 78 4 29 12 99 20 180 2 22 7 83 10 135 4 52 8 110 10 128 2 17 1 32
-3 31 -4 0 -83 -27 -177 -59z"/>
<path d="M1210 2849 c-287 -77 -501 -198 -695 -394 -173 -173 -281 -349 -354
-576 -12 -36 -23 -76 -26 -88 -2 -12 -6 -30 -9 -39 -20 -65 -31 -202 -29 -347
3 -265 87 -550 239 -805 26 -43 51 -77 56 -74 4 3 6 9 4 12 -16 25 -23 318
-11 432 46 436 248 722 609 864 126 50 325 87 491 90 l50 1 -2 35 c-1 19 -40
206 -88 415 -47 209 -91 406 -96 438 -10 53 -13 57 -38 56 -14 0 -60 -9 -101
-20z"/>
<path d="M1459 2705 c-3 -3 2 -42 13 -88 10 -45 27 -122 39 -172 33 -152 37
-168 48 -215 29 -123 73 -328 77 -355 l5 -30 -93 -1 c-188 -1 -342 -21 -463
-61 -27 -9 -50 -15 -50 -13 0 10 -193 -98 -237 -133 -169 -135 -284 -341 -318
-573 -6 -43 -14 -95 -17 -114 -3 -19 -6 -97 -5 -173 l0 -138 44 -57 c24 -31
78 -91 122 -134 108 -107 299 -240 336 -233 8 2 29 6 45 9 76 14 93 19 143 37
237 86 427 268 580 559 81 153 181 436 238 675 11 49 65 329 69 360 2 23 11
83 19 135 8 52 17 122 20 155 3 33 8 83 11 110 10 85 14 137 21 236 l6 96 -82
32 c-99 38 -210 67 -305 79 -81 11 -258 16 -266 7z"/>
<path d="M2801 1698 c-8 -29 -35 -127 -62 -217 -183 -610 -480 -1046 -864
-1268 -152 -88 -288 -135 -512 -178 -10 -2 -35 -4 -55 -4 -21 -1 -38 -5 -38
-9 0 -12 76 -17 255 -16 171 1 250 13 400 61 77 25 265 109 275 123 3 4 19 14
37 23 49 26 179 132 253 208 184 189 325 466 364 714 3 17 8 50 12 75 8 53 8
292 0 317 -3 10 -8 42 -11 71 -3 29 -10 65 -16 78 -5 14 -9 36 -9 50 0 41 -16
26 -29 -28z"/>
</g>
</svg>
